<?xml version="1.0" standalone="no"?>
<!DOCTYPE svg PUBLIC "-//W3C//DTD SVG 20010904//EN"
 "http://www.w3.org/TR/2001/REC-SVG-20010904/DTD/svg10.dtd">
<svg version="1.0" xmlns="http://www.w3.org/2000/svg"
 width="267.000000pt" height="139.000000pt" viewBox="0 0 267.000000 139.000000"
 preserveAspectRatio="xMidYMid meet">

<g transform="translate(0.000000,139.000000) scale(0.100000,-0.100000)"
fill="#000000" stroke="none">
<path d="M590 1360 c-208 -28 -394 -155 -487 -335 -55 -107 -75 -188 -76 -305
0 -286 180 -532 450 -617 75 -23 95 -25 206 -21 102 4 132 9 185 30 191 79
328 221 393 408 33 94 34 294 2 395 -91 287 -387 483 -673 445z m260 -305 c16
-8 36 -15 45 -15 27 0 16 -15 -27 -35 -36 -17 -45 -27 -59 -67 l-16 -48 -14
47 c-15 47 -24 56 -89 81 -23 9 -24 10 -5 17 71 24 82 33 95 81 l13 47 14 -46
c10 -34 21 -51 43 -62z m-280 89 c0 -3 -11 -20 -24 -37 -37 -48 -65 -122 -76
-194 -40 -284 203 -533 490 -502 30 3 57 4 60 1 10 -8 -87 -83 -146 -113 -342
-170 -726 151 -629 526 22 83 62 152 122 212 61 60 203 135 203 107z m464
-188 c3 -14 16 -28 27 -31 21 -7 21 -7 -4 -29 -14 -11 -27 -30 -30 -41 -3 -18
-5 -17 -15 7 -6 15 -23 33 -38 41 l-27 14 26 7 c17 4 29 15 33 31 8 32 20 32
28 1z"/>
<path d="M1885 1294 c-208 -44 -395 -208 -465 -407 -82 -234 -25 -476 154
-652 158 -156 361 -216 578 -171 177 38 348 173 426 337 51 108 65 169 64 288
-1 170 -62 312 -187 438 -147 148 -362 210 -570 167z m279 -220 c9 -45 34 -70
88 -85 l43 -12 -54 -17 c-58 -20 -68 -29 -77 -77 -7 -38 -24 -44 -24 -10 -1
44 -26 71 -81 88 l-53 16 56 17 c48 14 58 21 67 47 6 18 11 40 11 50 0 33 17
20 24 -17z m226 -170 c0 -8 14 -21 31 -28 l31 -13 -30 -12 c-17 -7 -33 -22
-37 -34 l-6 -22 -9 23 c-5 12 -22 27 -37 33 l-28 11 28 10 c16 6 30 20 33 34
6 25 24 24 24 -2z"/>
</g>
</svg>
